<?xml version="1.0" encoding="utf-8"?>
<!-- Generator: Adobe Illustrator 18.1.1, SVG Export Plug-In . SVG Version: 6.00 Build 0)  -->
<svg version="1.1" id="Слой_1" xmlns="http://www.w3.org/2000/svg" xmlns:xlink="http://www.w3.org/1999/xlink" x="0px" y="0px"
	 viewBox="0 198 595.3 438.5" enable-background="new 0 198 595.3 438.5" xml:space="preserve">
<path fill="#FFFFFF" d="M492.2,631.9c-11.6,12.9-32.4-3.9-23.3-16.8c24.6-36.2,49.2-71.2,75.1-106.1
	c-103.5,54.4-234.2,55.6-337.8,6.5C98.7,464.9-10,331.7,3,203.5c0-6.5,9.1-7.8,10.4-1.3C30.2,263.1,41.8,320,78,373.1
	c33.6,50.5,80.2,90.6,134.6,117.8c95.8,46.6,201.9,42.7,297.6,2.6c-3.9,0-6.5,0-10.4,0c-23.3,0-49.2,2.6-71.2-5.2
	c-6.5-2.6-5.2-9.1,0-11.6c22-7.8,47.9-5.2,71.2-6.5c20.7,0,42.7-1.3,64.7-1.3h1.3c5.2,0,10.4,0,15.5,0c9.1,0,18.1,11.6,11.6,20.7
	c-29.8,44-60.8,86.7-91.9,129.4c-1.3,2.6-1.3,3.9-2.6,5.2C494.7,628,492.2,631.9,492.2,631.9z"/>
</svg>
