<?xml version="1.0" encoding="utf-8"?>
<!-- Generator: Adobe Illustrator 18.1.1, SVG Export Plug-In . SVG Version: 6.00 Build 0)  -->
<svg version="1.1" id="Слой_1" xmlns="http://www.w3.org/2000/svg" xmlns:xlink="http://www.w3.org/1999/xlink" x="0px" y="0px"
	 viewBox="0 198 595.3 438.5" enable-background="new 0 198 595.3 438.5" xml:space="preserve">
<path fill="#FFFFFF" d="M95.8,624.1c-1.3-1.3-1.3-2.6-2.6-5.2c-31.1-42.7-62.1-85.4-91.9-129.4c-6.5-9.1,2.6-20.7,11.6-20.7
	c5.2,0,10.4,0,15.5,0h1.3c22,0,44,1.3,64.7,1.3c23.3,1.3,49.2-1.3,71.2,6.5c5.2,2.6,6.5,9.1,0,11.6c-22,7.8-47.9,5.2-71.2,5.2
	c-3.9,0-6.5,0-10.4,0c95.8,40.1,201.9,44,297.6-2.6c54.4-27.2,100.9-67.3,134.6-117.8c36.2-53.1,47.9-110,64.7-170.8
	c1.3-6.5,10.4-5.2,10.4,1.3c12.9,128.1-95.8,261.4-203.2,311.9c-103.5,49.2-234.2,47.9-337.8-6.5c25.9,34.9,50.5,69.9,75.1,106.1
	c9.1,12.9-11.6,29.8-23.3,16.8C102.2,631.9,99.6,628,95.8,624.1z"/>
</svg>
