<?xml version="1.0" encoding="utf-8"?>
<!-- Generator: Adobe Illustrator 18.1.1, SVG Export Plug-In . SVG Version: 6.00 Build 0)  -->
<svg version="1.1" id="Слой_1" xmlns="http://www.w3.org/2000/svg" xmlns:xlink="http://www.w3.org/1999/xlink" x="0px" y="0px"
	 viewBox="0 0 299.8 198" enable-background="new 0 0 299.8 198" xml:space="preserve">
<g>
	<path fill="#4C4B4D" d="M138.6,0c0,0.2-0.1,0.4,0,0.5c1.3,6.2,1.3,12.5,0.2,18.7c-0.1,0.8,0.5,1.7,0.8,2.5c0.8-0.7,2.2-1.2,2.5-2.1
		c2.3-7.3,7.8-12,14.1-15.2c3.2-1.6,7.8-0.3,11.8-0.1c0.3,0,0.9,1.7,0.6,2.2c-2.2,4.2-2.8,8.5-2.2,13.2c0.3,2.2-0.2,4.5-0.4,6.8
		c-0.3,3,2.4,3.1,4.1,4.1c0.5,0.3,2.1-0.8,2.7-1.6c2.1-2.7,4.7-4.1,8.1-4.1c1.7,0,3.5,0,5.2,0.2c4.6,0.4,9.7,5,10.2,9.5
		c0.1,0.9-1.1,2.2-1.9,3c-2.3,2.4-4.7,4.6-7,6.9c-1,1.1-0.6,2,0.2,3.4c1.8,3,4.1,4.2,7.6,4.2c4.7,0.1,7.6,3.1,9.3,7.3
		c0.6,1.4,0.4,2.3-1,3c-1.6,0.8-3,1.7-4.5,3c3.7,0.4,7.7-0.5,9.5,4.5c-1.1,0.4-2.4,1-4.1,1.6c1.2,0.9,2.2,1.7,3.4,2.3
		c1.5,0.8,2.3,2,1.9,3.6c-0.5,1.8,0.3,2.6,2,2.9c2.4,0.5,3.9,1.6,2.8,4.4c-0.2,0.4,0.3,1.1,0.5,1.6c0.8,1.6,1.8,3.1,2.4,4.8
		c0.6,1.9,1.2,3.4,3.2,4.4c2.1,1.1,3.8,2.7,3.4,5.6c-0.1,0.7,1.2,2,2.2,2.5c3,1.6,6.1,1.1,9.2,0.2c5.9-1.8,11.1-4.6,14.9-9.6
		c3.5-4.7,3-8.9,0.5-13.7c-0.9-1.8-2.6-2.9-4.8-2c-0.5,0.2-1.2,0.1-2,0.2c5.7-4.3,10.8-1.6,12,6c1.4,9.1-4.7,19.7-13.8,24.1
		c-7.3,3.6-14.5,3-21.4-0.6c-7-3.7-13.8-7.9-20.7-11.8c-2.8-1.6-5.9-2.9-9.4-4.6c0.1,2.8,0.2,4.7,0.4,6.7c0.4,5.6-1.9,8.6-7.5,9.3
		c-2.7,0.3-5.4,0.2-8.1,0c-0.8-0.1-1.8-0.8-2.1-1.5c-0.2-0.4,0.4-1.5,0.9-2.1c4-4.1,4-9.8,0-14c-4.4-4.6-6.5-6-10.1-6.7
		c0.2,1,0.4,1.9,0.7,2.7c1.4,4,2.3,7.8,1.7,12.2c-0.8,6.5-7.1,10.4-13.6,9.5c-1.8-0.3-2.2-1.1-1.5-2.7c2.2-5.2,1.5-7.5-2.9-11.1
		c-2.3-1.9-4.3-4.2-6.6-6.3c-0.5-0.5-1.5-0.7-2.3-0.7c-5.8,0.4-11.6,1-17.4,1.4c-1.5,0.1-2.8,0.4-2.4,2.2
		c1.8,7.8-2.5,11.3-10.7,13.6c-1.8,0.5-4.4,2.3-5.6-1.3c-0.1-0.3-1.4-0.3-2.2-0.3c-2.3,0-4.5,0-6.8,0c-0.2-0.2-0.4-0.4-0.7-0.6
		c1-1.6,1.9-3.2,3-4.7c1.2-1.6,2.6-3,3.6-4.7c1.4-2.4,0.6-3.6-1.7-5c-5.6-3.3-11-7-16.6-10.4c-1.3-0.8-2.9-1.4-4.5-1.7
		c-5.4-1-10.8-2-16.2-2.7c-3.5-0.5-7.1-0.6-10.6-0.8c-1.7-0.1-3.5,0.1-5.2-0.4c-0.7-0.2-1.7-1.9-1.5-2.3c1.2-2,2.4-4.6,4.3-5.5
		c3.9-1.9,8.2-2.8,12.4-4.1c1-0.3,2.1-0.6,2.8-1.3c1.9-1.9,3.9-3.4,6.7-3.7c0.5,0,0.9-1.2,1.2-1.9c0.8-2.1,1.4-4.2,2.2-6.3
		c0.6-1.5,1.7-1.6,3-0.7c1.1,0.7,2.1,1.5,3.2,2.2c0.9,0.6,1.7,1.2,2.9,2.1c-1-7-2.4-13.5,4.7-17.9c2.3,2.9,4.4,5.6,6.6,8.3
		c0.4,0,0.7-0.1,1.1-0.1c0.4-1.4,1-2.7,1.1-4.1c0.1-1.5-0.3-3-0.3-4.4c0.1-2.4-0.4-5.3,0.8-7.1c2.3-3.4,5.5-6.2,8.6-9.5
		c2.5,4.8,4.7,9,6.8,13c2.2-0.2,2.6-1.3,2.5-2.9c-0.1-4.2,0.6-8.2,2.4-12.2C120,6.7,125.1,2.7,132.1,1c0.8-0.2,1.5-0.7,2.3-1
		C135.8,0,137.2,0,138.6,0z M74.5,64.2c-0.1,0.3-0.1,0.5-0.2,0.8c1.2,0.4,2.4,1.1,3.5,1c4-0.3,8.1-0.5,11.8-1.6
		c11.3-3.5,21.9-9.2,33.8-10.9c5.2-0.7,10.5-2.7,15.7-2.3c10.8,0.7,21.3,3.7,31.1,8.5c7.1,3.4,13.2,7.9,17.1,14.9
		c1.1,1.9,2.4,3.7,3.7,5.4c1.5,1.8,3,3.6,6,4.1c-2.1-2.5-3.9-4.6-5.7-6.7c-3-3.5-5.6-7.4-8.9-10.6c-6.3-6.1-13.4-11.1-21.2-15.2
		c-8.2-4.3-16.7-7.9-26.1-7.8c-11.3,0.1-22.1,2.7-31.9,8.8C94.4,57.9,85.1,62.6,74.5,64.2z"/>
	<path fill="#70A64A" d="M0,144.4c0.2-0.2,0.5-0.3,0.6-0.5c1.1-5.9,5.8-7.6,10.6-8.6c2.2-0.5,5,0,7.1,1c4.7,2.3,9.1,5.2,12.3,9.6
		c4.2,5.8,3.1,13.9-2.6,18.3c-4,3-7.9,6.1-13.3,6.1c-1.9,0-3,1.5-3.1,3.5c-0.3,6-0.7,12-0.9,18c-0.1,3-1.3,4.8-4.4,5.2
		c-0.5,0.1-1,0.6-1.5,0.9c-1.6,0-3.2,0-4.7,0C0,180.1,0,162.3,0,144.4z M11.8,163.1c3.4-1.4,6.1-2.5,7-5.9c0.5-1.8,1.2-3.5,1.6-5.2
		c0.6-2.3,0.5-4.4-2-5.6c-1.3-0.6-2.8-1.1-4.2-1.3c-3.3-0.6-3.7-0.1-3.4,3.1c0.1,1.1,0.1,2.3,0.2,3.4
		C11.2,155.3,11.5,159,11.8,163.1z"/>
	<path fill="#70A64A" d="M299.8,180.1c-0.3,0.7-0.8,1.4-1,2.1c-1.4,4.7-4.1,8.1-9.2,8.9c-5.7,0.8-10.1-1.3-13.2-6.2
		c-2.6-4.1-3-8.5-2.3-13.1c0.4-3,5.6-5.5,8.2-3.9c0.5,0.3,1,1.2,1,1.9c0,1.9-0.5,3.9-0.3,5.7c0.2,1.7,0.8,3.6,1.7,5
		c0.6,0.9,2.4,1.8,3.2,1.5c1.2-0.4,2.5-1.8,2.8-3.1c1.5-4.9,1.5-10-0.1-14.9c-0.4-1.2-1.2-2.4-2.2-3.2c-1.4-1.3-3-2.4-4.7-3.2
		c-10.9-5.6-9.7-20.8-0.8-26.4c1.1-0.7,2.7-1.2,3.9-1c7,1.5,10.9,4,12,11.2c0.1,0.7,0.1,1.4,0.3,2.1c0.6,1.5,0.7,3.2-0.8,3.9
		c-1.5,0.7-3.5,1.3-4.8,0.7c-1.1-0.5-2.1-2.6-2.2-4c-0.3-3-1.5-5.8-3.2-6c-1.4-0.2-3.8,3-4.1,5.5c-0.4,3,0.5,5.3,3,7.3
		c3.5,2.8,6.8,5.8,9.8,9.1c1.5,1.7,2.2,4.2,3.3,6.4C299.8,171,299.8,175.6,299.8,180.1z"/>
	<path fill="#70A64A" d="M180.1,198c-1.7-2.4-0.8-4.8-0.3-7.3c1.4-6.8,3-13.6,4.4-20.4c0.1-0.7-0.2-1.5-0.6-2.2
		c-4.8-8.4-9.7-16.8-14.4-25.2c-0.8-1.4-1.1-3.4-0.7-4.9c0.2-0.9,2.2-1.8,3.4-1.8c1,0,2.4,1,2.9,2c4,6.7,7.8,13.4,11.7,20.2
		c0.2,0.4,0.6,0.8,1.4,1.9c0.6-2.5,1.1-4.4,1.6-6.2c1.5-6.1,2.9-12.2,4.6-18.3c0.2-0.8,1.5-1.6,2.4-1.7c1.8-0.2,3.1,1.1,3,2.9
		c0,1.9-0.6,3.8-0.9,5.6c-0.8,4.5-1.9,9-2.2,13.6c-0.4,5.9-0.8,11.8-3.1,17.4c-0.8,1.9-1,4.1-1.2,6.1c-0.5,4.1-0.8,8.2-1.4,12.2
		c-0.4,2.8-1.8,4.9-4.9,5.3c-0.4,0-0.7,0.5-1,0.7C183.3,198,181.7,198,180.1,198z"/>
	<path fill="#70A64A" d="M249.6,165.4c1.8-8.6,3.5-17.2,5.4-25.8c0.4-2,1-4.1,2-5.9c1.4-2.6,4.7-2.5,5.6,0.2
		c1.4,4.4,2.3,8.9,3.1,13.4c1.4,8.1,2.6,16.2,3.8,24.3c0.4,2.3,0.4,4.7,0.9,7c1,4.1,2.4,8.2,3.4,12.3c0.9,3.4,0.3,4.2-3.2,5.3
		c-2.4,0.8-4.8-0.3-5.5-3c-1-3.9-1.8-7.8-2.4-11.8c-0.8-5.7-1.5-11.4-2.1-17.2c-0.4-3.3-0.7-6.5-1.4-9.8c-0.1,0.4-0.2,0.9-0.3,1.3
		c-0.8,4.6-1.6,9.3-2.3,13.9c-0.7,5.5-1.3,11-1.9,16.5c-0.2,2-1.3,3.7-3.1,3.5c-1.5-0.2-3.7-1.5-4-2.8c-1-4-1.1-8.3-2-12.3
		c-1.4-7-3.1-14-4.8-20.9c0-0.2-0.3-0.3-0.6-0.7c0,6.3-0.3,12.3,0.1,18.3c0.3,5.8,1.4,11.6,1.9,17.5c0.1,1.3-0.9,3.5-1.9,3.8
		c-1.8,0.7-4,0.3-6.1,0.2c-0.3,0-0.6-1.4-0.6-2.1c-0.2-9.6-0.3-19.2-0.7-28.8c-0.3-7-0.9-14.1-1.3-21.1c0-0.7-0.2-1.5,0.1-2.1
		c0.7-1.2,1.5-2.7,2.6-3.3c0.8-0.4,2.4,0.5,3.3,1.3c0.9,0.7,1.7,1.8,2.1,2.9c2.4,6.7,4.8,13.5,7.1,20.2c0.7,1.9,1.3,3.9,2,5.9
		C249.1,165.5,249.3,165.4,249.6,165.4z"/>
	<path fill="#70A64A" d="M111.7,162.8c0.1-9.1,2-17.8,5.5-26c1-2.5,3.5-4.4,5.7-6.2c1.7-1.4,3.7-0.5,5.2,0.9c4.6,4.2,8.3,9,9.8,15.1
		c1.4,5.6,3.5,11.1,3.8,16.8c0.5,9.2-0.8,18.4-6.9,26c-1,1.3-2.2,2.5-3.6,3.4c-3.1,2.1-5.5,2-8.4-0.4c-5.9-4.9-9.5-11-10.2-18.8
		C112.5,169.9,112.1,166.4,111.7,162.8z M131.7,160.8c-1-4.8-2.3-11-3.7-17.2c-0.3-1.2-1.5-2.2-2.3-3.3c-0.8,0.9-1.6,1.9-2.4,2.8
		c-0.1,0.1-0.1,0.2-0.1,0.2c-1.3,7.9-3.2,15.7-3.8,23.7c-0.3,4.3,1.5,8.9,2.7,13.2c0.4,1.7,1.5,3.3,3.7,3c2.2-0.3,4.1-1.1,4.3-3.7
		C130.6,173.8,131.1,168.1,131.7,160.8z"/>
	<path fill="#70A64A" d="M217.9,162.4c0-6,0-12,0-18c0-1.8,0.1-3.7,0.7-5.4c0.4-1.2,1.4-2.5,2.5-3c4.3-1.7,5-1.2,5.7,3.4
		c0.8,5.7,2,11.4,2.5,17.1c0.3,3.3-0.3,6.8-0.6,10.2c-0.5,6-1,12-1.9,18c-0.7,5.1-3.1,8.9-9.2,9.3c-0.7,0-1.4,0.3-1.9,0.7
		c-4.2,2.9-9.2-0.3-10.8-4c-2.8-6.3-3.6-12.9-3.8-19.7c-0.2-9.4-0.1-18.9,0-28.3c0-1.7,1-3.4,1.7-5.1c0.2-0.4,1.1-1,1.4-0.9
		c0.5,0.2,1.1,0.9,1.3,1.4c0.2,0.7,0.2,1.6,0.2,2.3c-0.6,13.2,0.3,26.3,2.4,39.4c0.4,2.2,1.3,4.4,2.2,6.4c0.4,0.8,1.6,1.6,2.4,1.6
		c0.8,0,1.8-0.9,2.3-1.6c0.8-1.3,1.4-2.9,1.6-4.4c0.8-6.5,1.4-13,2.1-19.5C218.4,162.4,218.2,162.4,217.9,162.4z"/>
	<path fill="#70A64A" d="M48.8,177c-2.4,0.7-4.6,1.1-6.5,2.1c-1,0.5-1.8,1.8-2.2,2.9c-0.7,1.8-1.1,3.7-1.4,5.6
		c-0.4,2.7-2.3,2.9-4.4,2.9c-2.2,0-3.8-0.9-3.5-3.4c0.4-3.4,0.8-6.9,1.6-10.3c2.8-12,5.8-23.9,8.7-35.9c0.5-1.9,1.2-3.8,2.1-5.6
		c0.4-0.8,1.6-1.7,2.3-1.5c0.9,0.2,2.2,1.1,2.4,2c1.9,9.1,3.6,18.3,5.2,27.5c1,5.7,1.7,11.4,2.7,17.1c0.5,2.6,0.4,5.1-0.7,7.4
		c-0.4,0.9-1.4,1.5-2.2,2.3c-0.7-0.8-1.7-1.6-1.9-2.5c-0.7-2.6-1-5.3-1.5-8C49.3,178.6,49,177.8,48.8,177z"/>
	<path fill="#70A64A" d="M87.9,187c-0.4-13-0.7-26-1.2-39c-0.1-3.6-0.5-7.3-0.8-10.9c-0.2-2.1,1-3,3-3.1c6-0.4,12-1.1,17.8,1
		c1.7,0.6,3.3,1,3,3.2c-0.2,2.1-1.3,3.3-3.7,3c-2.7-0.3-5.4-0.6-8.1-0.9c-3.9-0.5-5.2,0.5-4.9,4.4c0.6,6.6,1.6,13.2,2.2,19.8
		c0.2,2.4,1.5,3,3.5,2.6c0.8-0.1,1.6-0.2,2.3-0.5c2.3-0.8,3.6,0.6,4.4,2.3c0.8,1.7,0.7,3.6-1.3,4.4c-2.2,0.9-4.5,1.6-6.8,2.4
		c-0.5,0.2-1.3,0.3-1.3,0.4c-0.1,2.5-0.2,5,0,7.4c0,0.3,1.8,0.8,2.7,0.7c2.7-0.4,5.3-1,8-1.6c2.5-0.5,3.1,0.1,3.1,2.5
		c-0.2,5.7-2.3,7.1-7,8.6c-3.9,1.2-7.6,2-11.7,1.5c-2.4-0.3-3.1-1.2-3.1-3.2c-0.1-1.7,0-3.5,0-5.2C88,187,88,187,87.9,187z"/>
	<path fill="#70A64A" d="M59.8,174.3c0-7.2,0.2-14.5-0.1-21.7c-0.2-5.3-0.8-10.6-1.2-15.9c-0.2-2.7,3.8-6,6.2-5
		c0.6,0.3,1.1,1.4,1.2,2.2c0.4,4.9,0.6,9.7,1,14.6c0.7,8.9,1.5,17.7,2.2,26.6c0.1,1.7,1,2.4,2.7,2.4c2.6,0,5.2,0.3,7.8,0.3
		c2,0,2.8,1.1,3,2.8c0.2,1.5,0.3,3.1,0.2,4.7c-0.1,3.1-0.9,3.9-3.8,4.1c-3.7,0.2-7.5,0.4-11.2,0.5c-4.2,0.1-7.5-2.8-8-7
		c-0.2-1.5-0.3-2.9-0.4-4.4c-0.1-1.4,0-2.8,0-4.2C59.6,174.3,59.7,174.3,59.8,174.3z"/>
</g>
</svg>
