<?xml version="1.0" encoding="utf-8"?>
<!-- Generator: Adobe Illustrator 18.1.1, SVG Export Plug-In . SVG Version: 6.00 Build 0)  -->
<svg version="1.1" id="Слой_1" xmlns="http://www.w3.org/2000/svg" xmlns:xlink="http://www.w3.org/1999/xlink" x="0px" y="0px"
	 viewBox="0 0 30 30" enable-background="new 0 0 30 30" xml:space="preserve">
<path fill-rule="evenodd" clip-rule="evenodd" fill="#70A64C" d="M15,0C6.7,0,0,6.7,0,15c0,8.3,6.7,15,15,15c8.3,0,15-6.7,15-15
	C30,6.7,23.3,0,15,0z M18.7,15.5h-2.4c0,3.9,0,8.7,0,8.7h-3.6c0,0,0-4.8,0-8.7H11v-3.1h1.7v-2c0-1.4,0.7-3.6,3.6-3.6l2.7,0v3
	c0,0-1.6,0-1.9,0c-0.3,0-0.8,0.2-0.8,0.8v1.8H19L18.7,15.5z"/>
</svg>
