<?xml version="1.0" encoding="utf-8"?>
<!-- Generator: Adobe Illustrator 18.1.1, SVG Export Plug-In . SVG Version: 6.00 Build 0)  -->
<svg version="1.1" id="Слой_1" xmlns="http://www.w3.org/2000/svg" xmlns:xlink="http://www.w3.org/1999/xlink" x="0px" y="0px"
	 viewBox="0 0 30 30" enable-background="new 0 0 30 30" xml:space="preserve">
<path fill-rule="evenodd" clip-rule="evenodd" fill="#70A64C" d="M15,30C6.7,30,0,23.3,0,15S6.7,0,15,0c8.3,0,15,6.7,15,15
	S23.3,30,15,30z M13.2,7.5c-1.2,0-2.6,0.2-3.8,1.2C8.4,9.5,8,10.5,8,11.5c0,1.7,1.3,3.3,3.5,3.3c0.2,0,0.4,0,0.7,0
	c-0.1,0.3-0.2,0.5-0.2,0.8c0,0.7,0.3,1.1,0.6,1.4c-1,0.1-2.7,0.2-4.1,1c-1.3,0.7-1.6,1.8-1.6,2.6c0,1.6,1.5,3,4.6,3
	c3.7,0,5.6-2,5.6-4c0-1.5-0.9-2.2-1.8-3l-0.8-0.6c-0.2-0.2-0.6-0.4-0.6-0.9c0-0.5,0.3-0.8,0.6-1c0.9-0.7,1.8-1.4,1.8-3
	c0-1.6-1-2.5-1.5-2.9h1.3l1.4-0.8H13.2z M23.1,14.4h-2.3v-2.3h-1.2v2.3h-2.3v1.2h2.3v2.3h1.2v-2.3h2.3V14.4z M12.5,14.3
	c-1.8,0-2.7-2.4-2.7-3.8c0-0.6,0.1-1.1,0.5-1.6c0.3-0.4,0.9-0.7,1.5-0.7c1.8,0,2.7,2.4,2.7,3.9c0,0.4,0,1.1-0.5,1.6
	C13.6,14,13.1,14.3,12.5,14.3z M13.4,17.7c1.6,1.2,2.3,1.7,2.3,2.8c0,1.3-1.1,2.3-3.1,2.3c-2.3,0-3.8-1.1-3.8-2.6
	c0-1.5,1.4-2,1.8-2.2c0.9-0.3,2-0.3,2.2-0.3C13.1,17.7,13.2,17.7,13.4,17.7z"/>
</svg>
