<?xml version="1.0" encoding="utf-8"?>
<!-- Generator: Adobe Illustrator 18.1.1, SVG Export Plug-In . SVG Version: 6.00 Build 0)  -->
<svg version="1.1" id="Слой_1" xmlns="http://www.w3.org/2000/svg" xmlns:xlink="http://www.w3.org/1999/xlink" x="0px" y="0px"
	 viewBox="0 0 30 30" enable-background="new 0 0 30 30" xml:space="preserve">
<path fill-rule="evenodd" clip-rule="evenodd" fill="#70A64C" d="M15,0C6.7,0,0,6.7,0,15s6.7,15,15,15c8.3,0,15-6.7,15-15
	C30,6.7,23.3,0,15,0z M16.2,19.1c-1.1-0.1-1.6-0.6-2.4-1.2c-0.5,2.5-1,4.9-2.8,6.1c-0.5-3.7,0.8-6.6,1.4-9.5c-1-1.7,0.1-5.2,2.3-4.4
	c2.7,1.1-2.3,6.5,1,7.1c3.5,0.7,4.9-6.1,2.8-8.3c-3.1-3.2-9.1-0.1-8.4,4.5c0.2,1.1,1.3,1.5,0.5,3c-2-0.4-2.6-2-2.5-4.1
	c0.1-3.5,3.1-5.9,6.1-6.2c3.8-0.4,7.3,1.4,7.8,4.9C22.5,15,20.2,19.4,16.2,19.1z"/>
</svg>
