<?xml version="1.0" encoding="utf-8"?>
<!-- Generator: Adobe Illustrator 18.1.1, SVG Export Plug-In . SVG Version: 6.00 Build 0)  -->
<svg version="1.1" id="Слой_1" xmlns="http://www.w3.org/2000/svg" xmlns:xlink="http://www.w3.org/1999/xlink" x="0px" y="0px"
	 viewBox="0 0 30 30" enable-background="new 0 0 30 30" xml:space="preserve">
<path fill-rule="evenodd" clip-rule="evenodd" fill="#70A64C" d="M15,30C6.7,30,0,23.3,0,15C0,6.7,6.7,0,15,0c8.3,0,15,6.7,15,15
	C30,23.3,23.3,30,15,30z M11.7,5.1l-0.8,3l-0.8-3H8.9c0.2,0.7,0.5,1.4,0.7,2.1C10,8.3,10.2,9,10.3,9.6v3.1h1.1V9.6l1.4-4.5H11.7z
	 M15.8,8.9c0-0.6-0.1-1-0.3-1.3c-0.3-0.4-0.7-0.6-1.2-0.6c-0.5,0-0.9,0.2-1.2,0.6c-0.2,0.3-0.3,0.7-0.3,1.3v2c0,0.6,0.1,1,0.3,1.3
	c0.3,0.4,0.7,0.6,1.2,0.6c0.5,0,0.9-0.2,1.2-0.6c0.2-0.3,0.3-0.7,0.3-1.3V8.9z M19.6,7h-1v4.3c-0.2,0.3-0.4,0.5-0.6,0.5
	c-0.1,0-0.2-0.1-0.2-0.2c0,0,0-0.2,0-0.4V7h-1v4.5c0,0.4,0,0.7,0.1,0.8c0.1,0.3,0.3,0.4,0.7,0.4c0.4,0,0.8-0.2,1.2-0.7v0.6h1V7z
	 M23.1,15.1c-0.2-0.9-0.9-1.5-1.8-1.6c-2.1-0.2-4.2-0.2-6.3-0.2c-2.1,0-4.2,0-6.3,0.2c-0.9,0.1-1.6,0.8-1.8,1.6
	c-0.3,1.3-0.3,2.7-0.3,4c0,1.3,0,2.7,0.3,4c0.2,0.9,0.9,1.5,1.8,1.6c2.1,0.2,4.2,0.2,6.3,0.2c2.1,0,4.2,0,6.3-0.2
	c0.9-0.1,1.6-0.8,1.8-1.6c0.3-1.3,0.3-2.7,0.3-4C23.4,17.8,23.4,16.4,23.1,15.1z M21.9,22c-0.3,0.4-0.7,0.6-1.2,0.6
	c-0.5,0-0.9-0.2-1.2-0.6c-0.2-0.3-0.3-0.7-0.3-1.3v-2c0-0.6,0.1-1,0.3-1.3c0.3-0.4,0.7-0.6,1.2-0.6c0.5,0,0.9,0.2,1.2,0.6
	c0.2,0.3,0.3,0.7,0.3,1.3v1.2h-2v1c0,0.5,0.2,0.8,0.5,0.8c0.2,0,0.4-0.1,0.5-0.4c0-0.1,0-0.3,0-0.7h1v0.1c0,0.3,0,0.6,0,0.7
	C22.1,21.6,22,21.8,21.9,22z M20.1,19.1h1v-0.5c0-0.5-0.2-0.8-0.5-0.8c-0.3,0-0.5,0.3-0.5,0.8V19.1z M17.4,22.6
	c-0.4,0-0.7-0.2-1-0.6v0.5h-1v-7.5h1v2.4c0.3-0.4,0.7-0.6,1-0.6c0.4,0,0.7,0.2,0.8,0.6c0.1,0.2,0.1,0.6,0.1,1.1v2.2
	c0,0.5,0,0.9-0.1,1.1C18.1,22.4,17.8,22.6,17.4,22.6z M17.3,18.6c0-0.5-0.1-0.8-0.4-0.8c-0.2,0-0.3,0.1-0.5,0.2v3.4
	c0.2,0.2,0.3,0.2,0.5,0.2c0.3,0,0.4-0.2,0.4-0.8V18.6z M13.4,21.9c-0.4,0.5-0.8,0.7-1.2,0.7c-0.3,0-0.5-0.1-0.7-0.4
	c-0.1-0.2-0.1-0.4-0.1-0.8V17h1v4.1c0,0.2,0,0.4,0,0.4c0,0.2,0.1,0.2,0.2,0.2c0.2,0,0.4-0.2,0.6-0.5V17h1v5.6h-1V21.9z M10.2,22.5
	H9.1v-6.4H7.9v-1.1h3.5v1.1h-1.2V22.5z M14.3,11.8c-0.3,0-0.5-0.3-0.5-0.8V8.6c0-0.5,0.2-0.8,0.5-0.8c0.3,0,0.5,0.3,0.5,0.8V11
	C14.8,11.5,14.6,11.8,14.3,11.8z"/>
</svg>
